# xmcd CD database file
#
# Track frame offsets:
#	150
#	19244
#	37038
#	57468
#	77579
#	95098
#	111453
#	132271
#	154308
#	171874
#	189544
#	203768
#	233971
#
# Disc length: 3587 seconds
#
# Revision: 2
# Processed by: cddbd v1.4b41PL1 Copyright (c) Steve Scherf et al.
# Submitted via: Feurio! 1.60 - http://www.feurio.com
#
DISCID=b80e010d,c90e010d
DTITLE=Dido - No Angel
DYEAR=1900
DGENRE=
TTITLE0=Here With Me
TTITLE1=Hunter
TTITLE2=Don't Think Of Me
TTITLE3=My Lover's Gone
TTITLE4=All You Want
TTITLE5=Thank You
TTITLE6=Honestly OK
TTITLE7=Slide
TTITLE8=Isobel
TTITLE9=I'm No Angel
TTITLE10=My Life
TTITLE11=Take My Hand [Bonus]
TTITLE12=Worthless [Bonus]
EXTD=
EXTT0=
EXTT1=
EXTT2=
EXTT3=
EXTT4=
EXTT5=
EXTT6=
EXTT7=
EXTT8=
EXTT9=
EXTT10=
EXTT11=
EXTT12=
PLAYORDER=
